# Blender v2.79 (sub 0) OBJ File: 'ODE.blend'
# www.blender.org
mtllib ODE.mtl
o Curve_CUCurve
v 3.444306 1.400212 -1.340892
v 3.444306 1.400212 -1.643184
v 1.853126 1.400213 -1.643184
v 1.853126 1.400213 -1.644467
v -0.667969 1.400215 -1.608119
v -1.084522 1.400215 -1.540335
v -1.469831 1.400216 -1.434165
v -1.824978 1.400216 -1.286572
v -2.151045 1.400216 -1.094517
v -2.449628 1.400216 -0.852663
v -2.585756 1.400216 -0.711941
v -2.825974 1.400217 -0.394695
v -3.020024 1.400217 -0.032635
v -3.163762 1.400217 0.370733
v -3.253042 1.400217 0.811902
v -3.283724 1.400217 1.287369
v -3.261033 1.400217 1.672555
v -3.196300 1.400217 2.022255
v -3.094531 1.400217 2.337415
v -2.960735 1.400217 2.618977
v -2.799921 1.400216 2.867886
v -2.617097 1.400216 3.085087
v -2.425349 1.400216 3.263249
v -2.223092 1.400216 3.410452
v -2.013527 1.400216 3.529588
v -1.799858 1.400216 3.623547
v -1.373024 1.400216 3.747505
v -0.968219 1.400215 3.805457
v -0.201014 1.400215 3.809913
v 0.298553 1.400214 3.745569
v 0.785158 1.400214 3.617531
v 1.137896 1.400214 3.480553
v 1.137896 1.400214 3.260146
v 1.137896 1.400214 2.679072
v 1.141104 1.400214 -0.905815
v 1.147823 1.400214 -0.934299
v 1.157032 1.400214 -0.958297
v 1.174188 1.400214 -0.988699
v 1.192102 1.400214 -1.013097
v 1.212643 1.400214 -1.035392
v 1.231713 1.400214 -1.050935
v 1.259389 1.400214 -1.068351
v 1.274074 1.400214 -1.075573
v 1.297014 1.400214 -1.084464
v 1.324113 1.400214 -1.091434
v 1.351803 1.400214 -1.095082
v 1.568413 1.400214 -1.095369
v 1.728714 1.400214 -1.094942
v 1.749663 1.400214 -1.092910
v 1.772889 1.400213 -1.088059
v 1.808753 1.400213 -1.075037
v 1.834974 1.400213 -1.061038
v 1.864995 1.400213 -1.039081
v 1.890820 1.400213 -1.012780
v 1.905869 1.400213 -0.992384
v 1.922268 1.400213 -0.962968
v 1.928829 1.400213 -0.947441
v 1.936534 1.400213 -0.923295
v 1.943125 1.400213 -0.883375
v 1.938374 1.400213 4.418550
v 1.925091 1.400213 4.563704
v 1.903082 1.400213 4.682097
v 1.870379 1.400213 4.777102
v 1.825015 1.400213 4.852096
v 1.765021 1.400213 4.910450
v 1.688429 1.400214 4.955541
v 1.593270 1.400214 4.990743
v 1.176714 1.400214 5.070756
v 1.176714 1.400214 5.372888
v 3.443183 1.400212 5.372888
v 3.443183 1.400212 5.071076
v 3.030348 1.400213 4.995664
v 2.935389 1.400213 4.960709
v 2.858628 1.400213 4.915409
v 2.798190 1.400213 4.856505
v 2.752198 1.400213 4.780736
v 2.718776 1.400213 4.684841
v 2.696047 1.400213 4.565559
v 2.682135 1.400213 4.419629
v 2.682129 1.400213 -0.680253
v 2.695636 1.400213 -0.827842
v 2.717819 1.400213 -0.949120
v 2.750651 1.400213 -1.047161
v 2.796104 1.400213 -1.125037
v 2.856151 1.400213 -1.185821
v 2.932763 1.400213 -1.232585
v 3.027912 1.400213 -1.268401
v 3.143571 1.400213 -1.296343
v 0.459389 1.400214 3.138492
v 0.448368 1.400214 3.234847
v 0.431600 1.400214 3.305412
v 0.421010 1.400214 3.332700
v 0.408923 1.400214 3.355555
v 0.395319 1.400214 3.374645
v 0.380178 1.400214 3.390643
v 0.341553 1.400214 3.420650
v 0.314864 1.400214 3.436268
v 0.246434 1.400215 3.464599
v 0.156662 1.400215 3.488271
v -0.093022 1.400215 3.517875
v -0.512725 1.400215 3.513958
v -0.988242 1.400215 3.445292
v -1.205732 1.400216 3.381327
v -1.408848 1.400216 3.295427
v -1.504814 1.400216 3.243741
v -1.745011 1.400216 3.079114
v -1.879486 1.400216 2.960261
v -2.000507 1.400216 2.829665
v -2.108209 1.400216 2.687590
v -2.202729 1.400216 2.534303
v -2.284204 1.400216 2.370069
v -2.408563 1.400216 2.009824
v -2.482378 1.400216 1.608979
v -2.506741 1.400216 1.169659
v -2.491721 1.400216 0.811583
v -2.446738 1.400216 0.473780
v -2.371903 1.400216 0.158320
v -2.267326 1.400216 -0.132726
v -2.133120 1.400216 -0.397286
v -1.969396 1.400216 -0.633291
v -1.776265 1.400216 -0.838669
v -1.553838 1.400216 -1.011349
v -1.302227 1.400216 -1.149260
v -1.021544 1.400215 -1.250333
v -0.711899 1.400215 -1.312495
v -0.373404 1.400215 -1.333675
v -0.107007 1.400215 -1.317691
v 0.005867 1.400215 -1.296267
v 0.105590 1.400215 -1.264604
v 0.192460 1.400215 -1.221740
v 0.266777 1.400215 -1.166713
v 0.328841 1.400214 -1.098558
v 0.378949 1.400214 -1.016314
v 0.417402 1.400214 -0.919018
v 0.444497 1.400214 -0.805706
v 0.460536 1.400214 -0.675417
v 0.465518 1.400214 2.677487
v 3.444306 0.612263 -1.340892
v 3.444306 0.612263 -1.643184
v 1.853125 0.612264 -1.643184
v 1.853125 0.612264 -1.644467
v -0.667969 0.612289 -1.608119
v -1.084523 0.612290 -1.540335
v -1.469832 0.612290 -1.434165
v -1.824978 0.612266 -1.286572
v -2.151046 0.612266 -1.094517
v -2.449629 0.612267 -0.852663
v -2.585756 0.612267 -0.711941
v -2.825975 0.612291 -0.394695
v -3.020024 0.612267 -0.032635
v -3.163762 0.612267 0.370733
v -3.253043 0.612267 0.811902
v -3.283724 0.612267 1.287369
v -3.261034 0.612267 1.672555
v -3.196300 0.612267 2.022255
v -3.094531 0.612267 2.337415
v -2.960736 0.612267 2.618977
v -2.799922 0.612267 2.867886
v -2.617097 0.612267 3.085087
v -2.425350 0.612291 3.263249
v -2.223092 0.612266 3.410452
v -2.013527 0.612266 3.529588
v -1.799859 0.612266 3.623547
v -1.373025 0.612266 3.747505
v -0.968220 0.612290 3.805457
v -0.201015 0.612265 3.809913
v 0.298553 0.612265 3.745569
v 0.785158 0.612264 3.617531
v 1.137896 0.612264 3.480553
v 1.137896 0.612264 3.260146
v 1.137896 0.612264 2.679072
v 1.141104 0.612264 -0.905815
v 1.147823 0.612264 -0.934299
v 1.157031 0.612264 -0.958297
v 1.174188 0.612264 -0.988699
v 1.192101 0.612288 -1.013097
v 1.212642 0.612264 -1.035392
v 1.231713 0.612264 -1.050935
v 1.259389 0.612264 -1.068351
v 1.274073 0.612264 -1.075573
v 1.297014 0.612264 -1.084464
v 1.324112 0.612264 -1.091434
v 1.351802 0.612264 -1.095082
v 1.415813 1.400214 -0.547913
v 1.728713 0.612288 -1.094942
v 1.749662 0.612288 -1.092910
v 1.772888 0.612288 -1.088059
v 1.808752 0.612264 -1.075037
v 1.834973 0.612264 -1.061038
v 1.864994 0.612264 -1.039081
v 1.890820 0.612288 -1.012780
v 1.905868 0.612264 -0.992384
v 1.922268 0.612288 -0.962968
v 1.928828 0.612264 -0.947441
v 1.936534 0.612264 -0.923295
v 1.943124 0.612264 -0.883375
v 1.938374 0.612264 4.418550
v 1.925090 0.612264 4.563704
v 1.903081 0.612264 4.682097
v 1.870379 0.612264 4.777102
v 1.825015 0.612264 4.852096
v 1.765021 0.612264 4.910450
v 1.688428 0.612264 4.955541
v 1.593270 0.612264 4.990743
v 1.176713 0.612264 5.070756
v 1.176713 0.612264 5.372888
v 3.443183 0.612263 5.372888
v 3.443183 0.612263 5.071076
v 3.030348 0.612263 4.995664
v 2.935388 0.612263 4.960709
v 2.858628 0.612263 4.915409
v 2.798189 0.612263 4.856505
v 2.752197 0.612263 4.780736
v 2.718775 0.612263 4.684841
v 2.696046 0.612263 4.565559
v 2.682135 0.612263 4.419629
v 2.682128 0.612263 -0.680253
v 2.695635 0.612263 -0.827842
v 2.717819 0.612263 -0.949120
v 2.750651 0.612263 -1.047161
v 2.796104 0.612263 -1.125037
v 2.856150 0.612287 -1.185821
v 2.932762 0.612263 -1.232585
v 3.027912 0.612263 -1.268401
v 3.143570 0.612263 -1.296343
v 0.459389 0.612265 3.138492
v 0.448368 0.612265 3.234847
v 0.431599 0.612265 3.305412
v 0.421009 0.612265 3.332700
v 0.408922 0.612265 3.355555
v 0.395318 0.612265 3.374645
v 0.380177 0.612265 3.390643
v 0.341552 0.612265 3.420650
v 0.314863 0.612265 3.436268
v 0.246433 0.612265 3.464599
v 0.156661 0.612289 3.488271
v -0.093023 0.612289 3.517875
v -0.512726 0.612265 3.513958
v -0.988242 0.612266 3.445292
v -1.205732 0.612266 3.381327
v -1.408849 0.612266 3.295427
v -1.504815 0.612266 3.243741
v -1.745012 0.612266 3.079114
v -1.879487 0.612266 2.960261
v -2.000507 0.612266 2.829665
v -2.108209 0.612266 2.687590
v -2.202729 0.612266 2.534303
v -2.284204 0.612266 2.370069
v -2.408564 0.612266 2.009824
v -2.482379 0.612267 1.608979
v -2.506741 0.612291 1.169659
v -2.491722 0.612267 0.811583
v -2.446739 0.612267 0.473780
v -2.371903 0.612266 0.158320
v -2.267327 0.612266 -0.132726
v -2.133121 0.612266 -0.397286
v -1.969396 0.612266 -0.633291
v -1.776265 0.612266 -0.838669
v -1.553838 0.612290 -1.011349
v -1.302227 0.612290 -1.149260
v -1.021544 0.612266 -1.250333
v -0.711899 0.612265 -1.312495
v -0.373405 0.612289 -1.333675
v -0.107007 0.612265 -1.317691
v 0.005867 0.612265 -1.296267
v 0.105589 0.612265 -1.264604
v 0.192459 0.612265 -1.221740
v 0.266777 0.612265 -1.166713
v 0.328840 0.612265 -1.098558
v 0.378949 0.612265 -1.016314
v 0.417401 0.612289 -0.919018
v 0.444497 0.612265 -0.805706
v 0.460535 0.612265 -0.675417
v 0.465518 0.612289 2.677487
vn 0.0000 1.0000 -0.0000
vn -0.0000 -1.0000 -0.0000
vn -0.7394 0.0000 0.6733
vn 1.0000 -0.0000 0.0000
vn 0.3454 -0.0000 -0.9384
vn 0.2348 -0.0000 0.9720
vn -0.3026 0.0000 0.9531
vn -0.6294 0.0000 -0.7771
vn -0.9323 0.0000 -0.3618
vn -0.9833 0.0000 0.1820
vn 0.9411 -0.0000 0.3381
vn 0.4413 -0.0000 0.8973
vn -0.7187 0.0000 -0.6953
vn -0.8540 0.0000 0.5203
vn 0.6980 -0.0000 -0.7161
vn 0.4806 -0.0000 0.8769
vn 0.8512 -0.0000 -0.5249
vn 0.5326 -0.0000 0.8464
vn -0.0000 0.0000 -1.0000
vn 0.3523 -0.0000 0.9359
vn -0.9032 0.0000 0.4292
vn -0.1865 0.0000 0.9825
vn 0.0000 0.0000 1.0000
vn -0.5051 0.0000 -0.8631
vn 0.3388 -0.0000 0.9409
vn 0.8709 -0.0000 0.4915
vn 0.8958 -0.0000 -0.4444
vn -0.6807 0.0000 0.7326
vn -0.8840 0.0000 -0.4675
vn 0.1968 -0.0000 0.9804
vn -0.3470 0.0000 -0.9379
vn -0.2789 0.0000 0.9603
vn -0.7972 0.0000 -0.6037
vn 0.1429 -0.0000 -0.9897
vn 0.7114 -0.0000 0.7028
vn 0.6132 -0.0000 0.7899
vn -0.9527 0.0000 0.3040
vn -0.9832 0.0000 -0.1828
vn 0.7969 -0.0000 -0.6041
vn 0.0093 -0.0000 -1.0000
vn 0.5210 -0.0000 0.8536
vn -0.9983 0.0000 0.0588
vn -0.7263 0.0000 -0.6874
vn -0.0599 0.0000 0.9982
vn -0.5075 0.0000 -0.8616
vn 0.5082 -0.0000 -0.8612
vn -0.7651 0.0000 0.6440
vn -0.9212 0.0000 0.3892
vn -0.8144 0.0000 -0.5803
vn 0.2822 -0.0000 -0.9594
vn 0.8216 -0.0000 0.5700
vn -0.9925 0.0000 0.1222
vn 0.6622 -0.0000 -0.7493
vn -0.8556 0.0000 -0.5176
vn -0.4710 0.0000 0.8821
vn 0.9955 -0.0000 -0.0949
vn -0.3825 0.0000 -0.9239
vn -0.6135 0.0000 -0.7897
vn 0.7285 -0.0000 0.6851
vn 0.7335 -0.0000 -0.6797
vn -0.9456 0.0000 -0.3255
vn 0.1465 -0.0000 0.9892
vn -0.1606 0.0000 -0.9870
vn -0.5885 0.0000 0.8085
vn -0.9420 0.0000 -0.3357
vn 0.9958 -0.0000 0.0911
vn 0.0625 -0.0000 0.9980
vn -0.9300 0.0000 0.3675
vn 0.9453 -0.0000 -0.3263
vn -0.5073 0.0000 -0.8618
vn -0.4942 0.0000 0.8693
vn 0.9837 -0.0000 0.1799
vn -0.9801 0.0000 -0.1984
vn -0.9958 0.0000 -0.0911
vn 0.9991 -0.0000 0.0419
vn 0.2491 -0.0000 0.9685
vn -0.4025 0.0000 0.9154
vn -0.7135 0.0000 0.7006
vn 0.9823 -0.0000 -0.1872
vn 0.7354 -0.0000 0.6776
vn -0.9729 0.0000 -0.2312
vn -1.0000 0.0000 0.0015
vn 0.2545 -0.0000 0.9671
vn 0.9912 -0.0000 0.1320
vn -0.3413 0.0000 0.9400
vn 0.1306 -0.0000 0.9914
vn 0.6318 -0.0000 0.7752
vn 0.8637 -0.0000 0.5041
vn -0.9999 0.0000 -0.0133
vn -0.9516 0.0000 0.3073
vn 0.4742 -0.0000 -0.8804
vn -0.9726 0.0000 0.2326
vn -0.3838 0.0000 -0.9234
vn 0.1797 -0.0000 -0.9837
vn -0.0058 0.0000 1.0000
vn 0.9730 -0.0000 0.2308
vn -0.0004 0.0000 1.0000
vn 0.9985 -0.0000 -0.0554
vn -0.5903 0.0000 0.8072
vn -0.1886 0.0000 -0.9820
vn 0.9733 -0.0000 0.2296
vn 0.8548 -0.0000 -0.5189
vn -0.9935 0.0000 -0.1136
vn -0.8399 0.0000 0.5427
vn -0.9979 0.0000 -0.0644
vn -0.4425 0.0000 0.8968
vn -0.1177 0.0000 -0.9930
vn -0.8734 0.0000 0.4869
vn 0.1277 -0.0000 0.9918
vn 0.3895 -0.0000 -0.9210
vn -0.2656 0.0000 -0.9641
vn -1.0000 0.0000 -0.0009
vn -0.2045 0.0000 0.9789
vn -0.8814 0.0000 -0.4724
vn 0.9443 -0.0000 -0.3291
vn -0.1417 0.0000 0.9899
vn -0.0965 0.0000 0.9953
vn -0.5951 0.0000 0.8037
vn -0.2550 0.0000 -0.9669
vn -0.8047 0.0000 0.5937
vn 0.5653 -0.0000 -0.8249
vn 1.0000 -0.0000 0.0009
vn -0.9866 0.0000 0.1629
vn 0.8061 -0.0000 0.5918
vn 0.8918 -0.0000 0.4524
vn -0.6972 0.0000 -0.7168
vn 0.3614 -0.0000 0.9324
vn -0.0144 0.0000 -0.9999
vn 0.9835 -0.0000 -0.1811
vn -1.0000 0.0000 0.0000
vn 0.3620 -0.0000 0.9322
vn 0.9336 -0.0000 0.3583
vn 0.9482 -0.0000 0.3175
usemtl None
s off
f 33//1 34//1 137//1 89//1 90//1
f 29//1 30//1 31//1 32//1 33//1 90//1 91//1 92//1 93//1 94//1 95//1 96//1 97//1 98//1 99//1 100//1 101//1 102//1 103//1 104//1 105//1 106//1 107//1 108//1 109//1 110//1 111//1 112//1 113//1 114//1 115//1 116//1 117//1 118//1 119//1 120//1 121//1 122//1 123//1 124//1 125//1 126//1 127//1 128//1 129//1 130//1 131//1 132//1 133//1 134//1 135//1 136//1 137//1 34//1 35//1 36//1 37//1 38//1 39//1 40//1 41//1 42//1 43//1 44//1 45//1 46//1 48//1 49//1 50//1 51//1 52//1 53//1 54//1 55//1 56//1 57//1 58//1 59//1 60//1 61//1 62//1 63//1 64//1 65//1 66//1 67//1 68//1 69//1 70//1 71//1 72//1 73//1 74//1 75//1 76//1 77//1 78//1 79//1 80//1 81//1 82//1 83//1 84//1 85//1 86//1 87//1 88//1 1//1 2//1 3//1 4//1 5//1 6//1 7//1 8//1 9//1 10//1 11//1 12//1 13//1 14//1 15//1 16//1 17//1 18//1 19//1 20//1 21//1 22//1 23//1 24//1 25//1 26//1 27//1 28//1
f 170//2 227//2 226//2 274//2 171//2
f 166//2 165//2 164//2 163//2 162//2 161//2 160//2 159//2 158//2 157//2 156//2 155//2 154//2 153//2 152//2 151//2 150//2 149//2 148//2 147//2 146//2 145//2 144//2 143//2 142//2 141//2 140//2 139//2 138//2 225//2 224//2 223//2 222//2 221//2 220//2 219//2 218//2 217//2 216//2 215//2 214//2 213//2 212//2 211//2 210//2 209//2 208//2 207//2 206//2 205//2 204//2 203//2 202//2 201//2 200//2 199//2 198//2 197//2 196//2 195//2 194//2 193//2 192//2 191//2 190//2 189//2 188//2 187//2 186//2 185//2 183//2 182//2 181//2 180//2 179//2 178//2 177//2 176//2 175//2 174//2 173//2 172//2 171//2 274//2 273//2 272//2 271//2 270//2 269//2 268//2 267//2 266//2 265//2 264//2 263//2 262//2 261//2 260//2 259//2 258//2 257//2 256//2 255//2 254//2 253//2 252//2 251//2 250//2 249//2 248//2 247//2 246//2 245//2 244//2 243//2 242//2 241//2 240//2 239//2 238//2 237//2 236//2 235//2 234//2 233//2 232//2 231//2 230//2 229//2 228//2 227//2 170//2 169//2 168//2 167//2
f 132//3 131//3 268//3 269//3
f 2//4 1//4 138//4 139//4
f 73//5 72//5 209//5 210//5
f 88//6 87//6 224//6 225//6
f 129//7 128//7 265//7 266//7
f 10//8 9//8 146//8 147//8
f 92//9 91//9 228//9 229//9
f 18//10 17//10 154//10 155//10
f 118//11 117//11 254//11 255//11
f 43//12 42//12 179//12 180//12
f 11//13 10//13 147//13 148//13
f 133//14 132//14 269//14 270//14
f 75//15 74//15 211//15 212//15
f 123//16 122//16 259//16 260//16
f 71//4 70//4 207//4 208//4
f 110//17 109//17 246//17 247//17
f 42//18 41//18 178//18 179//18
f 3//19 2//19 139//19 140//19
f 87//20 86//20 223//20 224//20
f 20//21 19//21 156//21 157//21
f 128//22 127//22 264//22 265//22
f 70//23 69//23 206//23 207//23
f 97//24 96//24 233//24 234//24
f 124//25 123//25 260//25 261//25
f 38//26 37//26 174//26 175//26
f 111//27 110//27 247//27 248//27
f 23//28 22//28 159//28 160//28
f 93//29 92//29 229//29 230//29
f 125//30 124//30 261//30 262//30
f 67//31 66//31 203//31 204//31
f 27//32 26//32 163//32 164//32
f 12//33 11//33 148//33 149//33
f 102//34 101//34 238//34 239//34
f 85//35 84//35 221//35 222//35
f 34//4 33//4 170//4 171//4
f 122//36 121//36 258//36 259//36
f 58//37 57//37 194//37 195//37
f 62//38 61//38 198//38 199//38
f 109//39 108//39 245//39 246//39
f 4//4 3//4 140//4 141//4
f 101//40 100//40 237//40 238//40
f 86//41 85//41 222//41 223//41
f 17//42 16//42 153//42 154//42
f 80//4 79//4 216//4 217//4
f 95//43 94//43 231//43 232//43
f 127//44 126//44 263//44 264//44
f 9//45 8//45 145//45 146//45
f 74//46 73//46 210//46 211//46
f 22//47 21//47 158//47 159//47
f 57//48 56//48 193//48 194//48
f 94//49 93//49 230//49 231//49
f 103//50 102//50 239//50 240//50
f 120//51 119//51 256//51 257//51
f 136//52 135//52 272//52 273//52
f 107//53 106//53 243//53 244//53
f 64//54 63//54 200//54 201//54
f 52//55 51//55 188//55 189//55
f 79//56 78//56 215//56 216//56
f 98//57 97//57 234//57 235//57
f 96//58 95//58 232//58 233//58
f 121//59 120//59 257//59 258//59
f 33//4 32//4 169//4 170//4
f 108//60 107//60 244//60 245//60
f 63//61 62//61 199//61 200//61
f 1//62 88//62 225//62 138//62
f 6//63 5//63 142//63 143//63
f 24//64 23//64 160//64 161//64
f 14//65 13//65 150//65 151//65
f 81//66 80//66 217//66 218//66
f 126//67 125//67 262//67 263//67
f 134//68 133//68 270//68 271//68
f 112//69 111//69 248//69 249//69
f 66//70 65//70 202//70 203//70
f 25//71 24//71 161//71 162//71
f 82//72 81//72 218//72 219//72
f 15//73 14//73 151//73 152//73
f 61//74 60//74 197//74 198//74
f 115//75 114//75 251//75 252//75
f 45//76 44//76 181//76 182//76
f 26//77 25//77 162//77 163//77
f 54//78 53//78 190//78 191//78
f 78//79 77//79 214//79 215//79
f 40//80 39//80 176//80 177//80
f 91//81 90//81 227//81 228//81
f 137//82 136//82 273//82 274//82
f 31//83 30//83 167//83 168//83
f 116//84 115//84 252//84 253//84
f 51//85 50//85 187//85 188//85
f 46//86 45//86 182//86 183//86
f 41//87 40//87 177//87 178//87
f 84//88 83//88 220//88 221//88
f 89//89 137//89 274//89 226//89
f 19//90 18//90 155//90 156//90
f 105//91 104//91 241//91 242//91
f 135//92 134//92 271//92 272//92
f 8//93 7//93 144//93 145//93
f 72//94 71//94 208//94 209//94
f 29//95 28//95 165//95 166//95
f 117//96 116//96 253//96 254//96
f 48//97 46//97 183//97 185//97
f 114//98 113//98 250//98 251//98
f 53//99 52//99 189//99 190//99
f 68//100 67//100 204//100 205//100
f 36//101 35//101 172//101 173//101
f 76//102 75//102 212//102 213//102
f 90//103 89//103 226//103 227//103
f 21//104 20//104 157//104 158//104
f 16//105 15//105 152//105 153//105
f 130//106 129//106 266//106 267//106
f 100//107 99//107 236//107 237//107
f 56//108 55//108 192//108 193//108
f 30//109 29//109 166//109 167//109
f 104//110 103//110 240//110 241//110
f 7//111 6//111 143//111 144//111
f 60//112 59//112 196//112 197//112
f 50//113 49//113 186//113 187//113
f 13//114 12//114 149//114 150//114
f 77//115 76//115 213//115 214//115
f 28//116 27//116 164//116 165//116
f 49//117 48//117 185//117 186//117
f 131//118 130//118 267//118 268//118
f 99//119 98//119 235//119 236//119
f 55//120 54//120 191//120 192//120
f 106//121 105//121 242//121 243//121
f 35//122 34//122 171//122 172//122
f 59//123 58//123 195//123 196//123
f 39//124 38//124 175//124 176//124
f 119//125 118//125 255//125 256//125
f 65//126 64//126 201//126 202//126
f 44//127 43//127 180//127 181//127
f 5//128 4//128 141//128 142//128
f 113//129 112//129 249//129 250//129
f 69//130 68//130 205//130 206//130
f 32//131 31//131 168//131 169//131
f 37//132 36//132 173//132 174//132
f 83//133 82//133 219//133 220//133
